<svg xmlns="http://www.w3.org/2000/svg" width="900" height="900" viewBox="0 0 660 700">
    <title>Skin Ritual Capsules</title>
    <rect width="660" height="700" fill="none"/>
    
    <circle cx="130" cy="154" r="8" fill="#dbe2d3" opacity=".55"/>
    <path d="M482 154c34 28 50 58 38 86-26-22-54-34-84-36 10-22 26-38 46-50z" fill="#6d8363" opacity=".16"/>
    <path d="M152 504c36-18 72-18 108 0-32 18-68 22-108 0z" fill="#6d8363" opacity=".2"/>
    <ellipse cx="330" cy="612" rx="132" ry="22" fill="rgba(0,0,0,.13)"/>
    
      <ellipse cx="330" cy="268" rx="116" ry="30" fill="#6d8363"/>
      <rect x="216" y="268" width="228" height="64" rx="18" fill="#6d8363"/>
      <rect x="230" y="322" width="200" height="190" rx="46" fill="#dbe2d3" stroke="#222" stroke-width="3"/>
      <ellipse cx="330" cy="322" rx="100" ry="24" fill="rgba(255,255,255,.45)"/>
      <rect x="272" y="378" width="116" height="72" rx="8" fill="rgba(255,255,255,.72)"/>
      <text x="330" y="422" text-anchor="middle" font-family="Arial" font-size="18" font-weight="700" fill="#24201d">INNER</text>
  </svg>