<svg xmlns="http://www.w3.org/2000/svg" viewBox="0 0 900 560" role="img" aria-label="Editorial beauty products on a warm peach set">
  <defs>
    <linearGradient id="bg" x1="0" y1="0" x2="1" y2="1">
      <stop offset="0" stop-color="#fff3ec"/>
      <stop offset="0.55" stop-color="#ffd9c9"/>
      <stop offset="1" stop-color="#f6ad91"/>
    </linearGradient>
    <linearGradient id="blueTube" x1="0" y1="0" x2="0" y2="1">
      <stop offset="0" stop-color="#9ee6ef"/>
      <stop offset="1" stop-color="#54bdd0"/>
    </linearGradient>
    <linearGradient id="rose" x1="0" y1="0" x2="1" y2="1">
      <stop offset="0" stop-color="#ff9a9e"/>
      <stop offset="1" stop-color="#f15b7a"/>
    </linearGradient>
    <linearGradient id="gold" x1="0" y1="0" x2="1" y2="1">
      <stop offset="0" stop-color="#ffd9a4"/>
      <stop offset="1" stop-color="#c98343"/>
    </linearGradient>
    <filter id="shadow" x="-30%" y="-30%" width="160%" height="160%">
      <feDropShadow dx="0" dy="18" stdDeviation="18" flood-color="#8b4a32" flood-opacity="0.22"/>
    </filter>
  </defs>
  <rect width="900" height="560" rx="34" fill="url(#bg)"/>
  <circle cx="790" cy="86" r="74" fill="#ff7f8f" opacity="0.52"/>
  <circle cx="754" cy="116" r="48" fill="#ffd15c" opacity="0.48"/>
  <path d="M0 435c138-40 265-28 382 8 136 42 304 58 518-18v135H0z" fill="#fff8f2" opacity="0.72"/>
  <g filter="url(#shadow)">
    <rect x="520" y="122" width="132" height="286" rx="35" fill="url(#blueTube)"/>
    <path d="M528 122h116l-21 286h-74z" fill="#ffffff" opacity="0.22"/>
    <rect x="668" y="232" width="90" height="176" rx="22" fill="#f4b58d"/>
    <rect x="690" y="176" width="46" height="66" rx="16" fill="#f9d5bd"/>
    <rect x="676" y="268" width="72" height="102" rx="13" fill="#fff2e8" opacity="0.28"/>
    <rect x="382" y="292" width="92" height="118" rx="20" fill="#f9d9cc"/>
    <ellipse cx="428" cy="292" rx="46" ry="16" fill="#fff1ea"/>
    <ellipse cx="428" cy="410" rx="50" ry="16" fill="#d98f77" opacity="0.25"/>
    <rect x="292" y="196" width="38" height="208" rx="19" fill="#f5c8b4"/>
    <rect x="298" y="158" width="26" height="52" rx="13" fill="#ffffff"/>
    <rect x="224" y="246" width="38" height="158" rx="19" fill="#f9aab1"/>
    <rect x="229" y="216" width="28" height="38" rx="11" fill="#ffffff"/>
    <rect x="150" y="294" width="70" height="114" rx="18" fill="#ffc8d1"/>
    <rect x="165" y="242" width="40" height="58" rx="14" fill="#ffffff"/>
    <path d="M806 386c38 0 58 31 38 56-18 23-76 25-94 1-19-25 15-57 56-57z" fill="#f08c83"/>
  </g>
  <g fill="none" stroke-linecap="round" stroke-width="15" opacity="0.9">
    <path d="M732 250c30-62 65-93 116-112" stroke="url(#gold)"/>
    <path d="M770 252c13-58 46-96 91-128" stroke="#b8784a"/>
    <path d="M706 254c-10-58 6-105 34-147" stroke="#e7b580"/>
  </g>
  <g>
    <circle cx="772" cy="102" r="42" fill="url(#rose)"/>
    <path d="M742 101c32-36 77-26 66 13-18-28-47-24-66-13z" fill="#ffd0cf" opacity="0.72"/>
    <circle cx="716" cy="150" r="36" fill="#ffb85a"/>
    <path d="M692 152c27-29 64-21 56 10-16-21-40-18-56-10z" fill="#fff1bb" opacity="0.7"/>
  </g>
  <g fill="#ffffff" opacity="0.24">
    <circle cx="112" cy="108" r="82"/>
    <circle cx="70" cy="244" r="26"/>
    <circle cx="836" cy="306" r="34"/>
  </g>
</svg>
